<?xml version="1.0" standalone="no"?>
<!DOCTYPE svg PUBLIC "-//W3C//DTD SVG 1.1//EN" "http://www.w3.org/Graphics/SVG/1.1/DTD/svg11.dtd" >
<svg xmlns="http://www.w3.org/2000/svg">
<metadata></metadata>
<defs>
<font id="alright_sansregular" horiz-adv-x="446" >
<font-face units-per-em="2048" ascent="1556" descent="-492" />
<missing-glyph horiz-adv-x="512" />
<glyph unicode="&#xfb01;" horiz-adv-x="1230" d="M47 926v129h189v88q0 218 110.5 317t317.5 99q214 0 407 -121l-70 -117q-73 46 -160.5 74t-168.5 28q-134 0 -200 -66t-66 -216v-86h294v-129h-294v-926h-170v926h-189zM897 0v1057h170v-1057h-170z" />
<glyph unicode="&#xfb02;" horiz-adv-x="1263" d="M47 926v129h189v92q0 207 115 309.5t317 102.5q204 0 318 -102.5t114 -311.5v-1145h-170v1145q0 278 -262 278t-262 -278v-90h294v-129h-294v-926h-170v926h-189z" />
<glyph unicode="&#xfb03;" horiz-adv-x="1867" d="M47 926v129h189v84q0 409 413 409q176 0 328 -94q108 105 323 105q216 0 406 -121l-70 -117q-72 46 -159.5 74t-169.5 28q-134 0 -200.5 -66t-66.5 -216v-86h295v-129h-295v-926h-168v926h-466v-926h-170v926h-189zM406 1055h466v88q0 123 35 207q-111 63 -245 63 q-129 0 -192.5 -64.5t-63.5 -207.5v-86zM1534 0v1057h168v-1057h-168z" />
<glyph unicode="&#xfb04;" horiz-adv-x="1898" d="M47 926v129h189v84q0 409 413 409q178 0 334 -98q112 109 322 109q203 0 316.5 -102.5t113.5 -311.5v-1145h-170v1145q0 278 -262 278q-263 0 -263 -278v-90h297v-129h-297v-926h-168v926h-466v-926h-170v926h-189zM406 1055h466v92q0 122 37 203q-111 63 -247 63 q-129 0 -192.5 -64.5t-63.5 -207.5v-86z" />
<glyph horiz-adv-x="0" />
<glyph horiz-adv-x="682" />
<glyph unicode=" "  horiz-adv-x="512" />
<glyph unicode="&#x09;" horiz-adv-x="512" />
<glyph unicode="&#xa0;" horiz-adv-x="512" />
<glyph unicode="!" horiz-adv-x="528" d="M170 0v219h186v-219h-186zM172 1065v369h180v-369l-45 -643h-90z" />
<glyph unicode="&#x22;" horiz-adv-x="827" d="M125 920v514h192l-90 -516zM518 920v514h193l-90 -516z" />
<glyph unicode="#" horiz-adv-x="1349" d="M72 279v127h276l53 313h-262v129h283l45 268h141l-45 -268h305l45 268h142l-45 -268h268v-129h-289l-53 -313h272v-127h-293l-45 -279h-141l45 279h-307l-45 -279h-139l45 279h-256zM489 406h306l53 313h-307z" />
<glyph unicode="$" horiz-adv-x="1107" d="M104 96l80 123q67 -42 158.5 -72t183.5 -34v387q-41 9 -65 15t-62.5 16.5t-62 20t-55.5 25t-51.5 31.5t-41.5 38.5t-33.5 48.5t-19.5 59t-8 71q0 130 103.5 217.5t287.5 96.5v198h103v-198q186 -11 342 -86l-66 -125q-132 61 -285 73v-374q51 -11 82.5 -19.5t77.5 -24 t75.5 -31t62.5 -41t52 -55t31.5 -71t12.5 -90.5q0 -131 -98.5 -218.5t-286.5 -101.5v-247h-103v245q-117 4 -226.5 38.5t-187.5 84.5zM289 831q0 -41 17.5 -72t53.5 -52.5t72.5 -34.5t93.5 -27v356q-114 -6 -175.5 -52.5t-61.5 -117.5zM612 115q117 9 175.5 56.5t58.5 119.5 q0 33 -12.5 60.5t-32 46t-52 34.5t-63 26t-74.5 21v-364z" />
<glyph unicode="%" horiz-adv-x="1527" d="M106 852q0 121 85 204t210 83t210 -83t85 -204q0 -124 -84.5 -206.5t-210.5 -82.5t-210.5 82.5t-84.5 206.5zM223 852q0 -78 51 -131t129 -53q76 0 127.5 53t51.5 131q0 77 -51.5 129.5t-127.5 52.5q-77 0 -128.5 -52.5t-51.5 -129.5zM283 0l825 1116h131l-825 -1116 h-131zM829 266q0 121 86 204t211 83t210 -83t85 -204q0 -124 -85 -206.5t-210 -82.5q-126 0 -211.5 82.5t-85.5 206.5zM946 266q0 -78 52 -131t128 -53t127.5 53t51.5 131q0 77 -51.5 130t-127.5 53t-128 -53t-52 -130z" />
<glyph unicode="&#x26;" horiz-adv-x="1525" d="M90 397q0 141 82 251t219 188q-106 137 -106 278q0 143 107.5 243.5t275.5 100.5q217 0 362 -166l-110 -94q-108 123 -256 123q-95 0 -154 -60t-59 -145q0 -120 133 -270q214 -226 499 -443q88 150 88 324h154q0 -225 -121 -414q61 -46 275 -196l-95 -125 q-221 158 -278 201q-101 -103 -234 -160.5t-284 -57.5q-118 0 -214 35t-157 94.5t-94 135t-33 157.5zM252 410q0 -123 91 -206t253 -83q228 0 393 162q-309 239 -514 454q-103 -57 -163 -140t-60 -187z" />
<glyph unicode="'" horiz-adv-x="432" d="M125 920v514h192l-90 -516z" />
<glyph unicode="(" horiz-adv-x="780" d="M125 567q0 550 373 979h194q-80 -81 -148 -178.5t-127 -219.5t-92.5 -272t-33.5 -309t33.5 -308.5t92.5 -271t126.5 -218.5t148.5 -179h-192q-375 431 -375 977z" />
<glyph unicode=")" horiz-adv-x="780" d="M88 -410q81 82 148.5 179t126.5 218.5t92.5 271t33.5 308.5t-33.5 309t-92.5 272t-127 219.5t-148 178.5h195q372 -428 372 -979q0 -547 -374 -977h-193z" />
<glyph unicode="*" horiz-adv-x="864" d="M96 1061l2 141l277 -26l2 4l-109 252l123 34l66 -264l4 -2l209 174l78 -106l-238 -133v-7l238 -141l-82 -104l-205 180l-4 -2l-72 -270l-121 40l113 261l-4 2z" />
<glyph unicode="+" horiz-adv-x="1257" d="M96 459v147h453v459h160v-459h452v-147h-452v-459h-160v459h-453z" />
<glyph unicode="," d="M78 -207q127 62 127 207h-76v240h190v-199q0 -131 -47 -205.5t-151 -118.5z" />
<glyph unicode="-" horiz-adv-x="776" d="M90 461v151h598v-151h-598z" />
<glyph unicode="." d="M129 0v240h190v-240h-190z" />
<glyph unicode="/" horiz-adv-x="1034" d="M-23 -410l910 1956h170l-907 -1956h-173z" />
<glyph unicode="0" horiz-adv-x="1351" d="M113 559q0 127 45 236.5t121 184.5t178.5 117t216.5 42q154 0 282.5 -71.5t205.5 -205t77 -303.5q0 -171 -77 -306t-205 -206.5t-283 -71.5q-114 0 -216.5 42.5t-178.5 117t-121 185t-45 239.5zM287 559q0 -190 109.5 -314t277.5 -124q169 0 280 124t111 314t-111 312 t-280 122q-168 0 -277.5 -122t-109.5 -312z" />
<glyph unicode="1" horiz-adv-x="819" d="M94 981l346 145h133v-1126h-172v954l-245 -102z" />
<glyph unicode="2" horiz-adv-x="1232" d="M137 948q100 87 232 139t274 52q210 0 337.5 -91.5t127.5 -244.5q0 -81 -41.5 -145.5t-108 -107t-147.5 -77.5t-163.5 -67.5t-152 -67t-117 -84t-54.5 -111.5h784v-143h-967l-2 47q-2 85 23.5 155t71 119t105 89.5t126 69.5t133 55.5t127 53t107.5 55t74.5 68t27.5 87.5 q0 92 -80 146t-207 54q-115 0 -222 -44.5t-189 -120.5z" />
<glyph unicode="3" horiz-adv-x="1206" d="M92 -244l66 135q180 -90 368 -90q192 0 312 81.5t120 223.5q0 127 -100.5 189.5t-257.5 62.5h-194v138h188q140 0 225.5 66.5t85.5 193.5q0 106 -91 174.5t-247 68.5q-98 0 -200 -44t-179 -115l-96 114q220 189 483 189q224 0 363 -105.5t139 -271.5q0 -122 -67 -205 t-185 -121q141 -36 224.5 -121.5t83.5 -220.5q0 -137 -82 -238.5t-218 -151.5t-305 -50q-228 0 -436 98z" />
<glyph unicode="4" horiz-adv-x="1302" d="M76 139l755 979h189v-977h225v-139h-225v-319h-168v319h-721zM256 141h596v791z" />
<glyph unicode="5" horiz-adv-x="1181" d="M96 -242l66 136q168 -91 356 -91q179 0 290.5 92t111.5 246q0 136 -97 220.5t-258 84.5q-120 0 -291 -61l-102 66l27 665h811l2 -139h-658l-18 -451q141 60 276 60q210 0 346 -122.5t136 -322.5q0 -148 -78 -259.5t-208 -167.5t-292 -56q-235 0 -420 100z" />
<glyph unicode="6" horiz-adv-x="1286" d="M119 672q0 139 24.5 255.5t69 201.5t103.5 149t130.5 103t147.5 58t158 19q188 0 354 -78l-68 -127q-143 64 -286 64q-90 0 -168.5 -33.5t-143.5 -102t-104 -184.5t-43 -268q76 77 191 126.5t233 49.5q207 0 335 -123t128 -331q0 -94 -35.5 -180t-99.5 -152t-161.5 -105 t-213.5 -39t-209 36.5t-156 99.5t-105.5 152t-61.5 191t-19 218zM295 590q13 -217 106 -345t271 -128q153 0 245.5 97.5t92.5 236.5q0 145 -87.5 234t-230.5 89q-115 0 -225 -53t-172 -131z" />
<glyph unicode="7" horiz-adv-x="1175" d="M90 969v147h991v-123l-594 -1310h-186l598 1286h-809z" />
<glyph unicode="8" horiz-adv-x="1345" d="M111 373q0 141 101 236.5t257 135.5q-128 34 -210.5 121.5t-82.5 208.5q0 174 140 278.5t358 104.5q217 0 356 -104.5t139 -278.5q0 -121 -82 -208.5t-210 -121.5q156 -40 257 -135.5t101 -236.5q0 -185 -155.5 -291.5t-405.5 -106.5t-406.5 106.5t-156.5 291.5zM283 379 q0 -122 109.5 -194t281.5 -72q171 0 280 72t109 194q0 83 -55 147t-141 100t-193 48q-108 -12 -194.5 -48t-141.5 -100t-55 -147zM350 1073q0 -111 88.5 -180.5t235.5 -83.5q147 14 235 83.5t88 180.5t-91.5 179.5t-231.5 68.5q-141 0 -232.5 -68.5t-91.5 -179.5z" />
<glyph unicode="9" horiz-adv-x="1282" d="M100 664q0 95 35 180.5t98.5 151.5t161.5 104.5t215 38.5t211 -36.5t158.5 -99.5t107.5 -152t62.5 -191t19.5 -218q0 -166 -35 -300.5t-94.5 -223.5t-141 -149t-171.5 -86.5t-190 -26.5q-206 0 -379 102l78 123q129 -84 301 -84q90 0 168.5 33.5t143 101.5t103.5 184 t43 269q-78 -78 -190.5 -127t-229.5 -49q-209 0 -342 124.5t-133 330.5zM270 666q0 -144 92.5 -234t239.5 -90q114 0 221 51.5t170 128.5q-8 141 -51 245.5t-128.5 167t-205.5 62.5q-155 0 -246.5 -96.5t-91.5 -234.5z" />
<glyph unicode=":" d="M129 0v240h190v-240h-190zM129 825v240h190v-240h-190z" />
<glyph unicode=";" d="M78 -207q127 62 127 207h-76v240h190v-199q0 -131 -47 -205.5t-151 -118.5zM129 825v240h190v-240h-190z" />
<glyph unicode="&#x3c;" horiz-adv-x="1292" d="M84 455v155l1083 455v-176l-886 -354l886 -363v-172z" />
<glyph unicode="=" horiz-adv-x="1257" d="M96 211v147h1065v-147h-1065zM96 707v147h1065v-147h-1065z" />
<glyph unicode="&#x3e;" horiz-adv-x="1292" d="M125 0v172l887 363l-887 354v176l1083 -455v-155z" />
<glyph unicode="?" horiz-adv-x="1075" d="M82 1266q182 192 434 192q205 0 330 -100.5t125 -265.5q0 -75 -24 -136.5t-63 -103t-86 -77.5t-94 -69t-86 -67.5t-64 -83t-26 -106.5v-27h-135q0 2 -1 22t-1 23q0 76 22.5 136.5t58.5 100t79.5 73t87 63.5t79.5 62t58.5 78t22.5 103q0 100 -79 165t-206 65 q-175 0 -326 -148zM369 0v219h186v-219h-186z" />
<glyph unicode="@" horiz-adv-x="1714" d="M137 573q0 203 99.5 374t271 270.5t375.5 99.5q200 0 359 -86.5t247 -239t88 -342.5q0 -114 -35.5 -209t-93 -154t-127 -91.5t-141.5 -32.5q-91 0 -144 43.5t-63 113.5q-43 -58 -107.5 -93.5t-138.5 -35.5q-106 0 -174 74t-68 201q0 68 17.5 138.5t53 136t84 117 t116.5 82t145 30.5q120 0 195 -99l30 78h113l-143 -497q-26 -93 0.5 -146t101.5 -53q112 0 198.5 109t86.5 288q0 252 -168 413t-432 161q-132 0 -252.5 -51.5t-207.5 -138.5t-138.5 -207.5t-51.5 -252.5q0 -174 87 -322.5t237 -235.5t326 -87q184 0 348 101l53 -78 q-183 -119 -401 -119q-153 0 -291 58.5t-237.5 157.5t-158.5 236.5t-59 288.5zM614 471q0 -82 38 -129t106 -47q73 0 135 51.5t90 149.5l84 290q-64 76 -160 76q-86 0 -155.5 -64t-103.5 -152.5t-34 -174.5z" />
<glyph unicode="A" horiz-adv-x="1417" d="M61 0l543 1434h209l541 -1434h-189l-129 352h-657l-127 -352h-191zM430 494h555l-276 761h-4z" />
<glyph unicode="B" horiz-adv-x="1380" d="M172 0v1434h563q232 0 352.5 -104.5t120.5 -268.5q0 -119 -63 -200.5t-170 -119.5q134 -35 212.5 -121.5t78.5 -218.5q0 -190 -130 -295.5t-358 -105.5h-606zM346 147h430q149 0 230 68t81 197q0 117 -85.5 182t-225.5 65h-430v-512zM346 799h381q149 0 226 70t77 180 q0 104 -76.5 170.5t-226.5 66.5h-381v-487z" />
<glyph unicode="C" horiz-adv-x="1454" d="M113 731q0 213 91 378.5t255.5 257t376.5 91.5q273 0 475 -155l-94 -127q-173 131 -379 131q-246 0 -397.5 -158.5t-151.5 -417.5q0 -272 149.5 -438t399.5 -166q235 0 397 156l108 -115q-202 -193 -512 -193q-212 0 -375.5 95t-253 267t-89.5 394z" />
<glyph unicode="D" horiz-adv-x="1460" d="M172 0v1434h414q369 0 567.5 -187.5t198.5 -521.5q0 -346 -193 -535.5t-573 -189.5h-414zM346 147h250q285 0 432.5 152t147.5 426q0 261 -151 411t-429 150h-250v-1139z" />
<glyph unicode="E" horiz-adv-x="1300" d="M172 0v1434h983v-156h-809v-475h729v-146h-729v-501h821v-156h-995z" />
<glyph unicode="F" horiz-adv-x="1265" d="M172 0v1434h967v-156h-793v-487h696v-150h-696v-641h-174z" />
<glyph unicode="G" horiz-adv-x="1488" d="M113 731q0 158 52 293t145.5 230.5t229 149.5t296.5 54q266 0 481 -141l-90 -127q-179 117 -387 117q-246 0 -397.5 -160t-151.5 -416q0 -278 146.5 -441t402.5 -163q199 0 334 84v410h-400v133h561v-633q-101 -70 -230 -108t-269 -38q-331 0 -527 206.5t-196 549.5z" />
<glyph unicode="H" horiz-adv-x="1437" d="M172 0v1434h174v-627h746v627h174v-1434h-174v653h-746v-653h-174z" />
<glyph unicode="I" horiz-adv-x="516" d="M172 0v1434h174v-1434h-174z" />
<glyph unicode="J" horiz-adv-x="1169" d="M98 272l142 80q92 -221 299 -221q145 0 217.5 90.5t72.5 251.5v961h175v-963q0 -234 -117.5 -365t-339.5 -131q-161 0 -274.5 81t-174.5 216z" />
<glyph unicode="K" horiz-adv-x="1372" d="M172 0v1434h174v-801l694 801h203l-467 -537l522 -897h-204l-432 766l-316 -360v-406h-174z" />
<glyph unicode="L" horiz-adv-x="1239" d="M172 0v1434h174v-1278h803v-156h-977z" />
<glyph unicode="M" horiz-adv-x="1740" d="M172 0v1434h188l512 -744l512 744h187v-1434h-170v1186l-531 -762l-530 764v-1188h-168z" />
<glyph unicode="N" horiz-adv-x="1484" d="M172 0v1434h176l797 -1164v1164h168v-1434h-178l-795 1161v-1161h-168z" />
<glyph unicode="O" horiz-adv-x="1656" d="M113 727q0 216 95 384t257.5 257.5t363.5 89.5q149 0 281 -52.5t228 -146.5t152 -232t56 -300q0 -169 -55 -311t-151 -238.5t-227.5 -149.5t-283.5 -53t-283.5 53t-227 149.5t-150.5 238.5t-55 311zM291 727q0 -138 41.5 -251.5t114 -189.5t170.5 -117.5t212 -41.5 q113 0 211.5 41.5t171 117.5t114.5 190t42 251q0 130 -42 239.5t-114.5 183.5t-171.5 115.5t-211 41.5t-211 -41.5t-171 -115.5t-114 -183.5t-42 -239.5z" />
<glyph unicode="P" horiz-adv-x="1353" d="M172 0v1434h569q107 0 192.5 -24.5t141 -65t93 -96t53.5 -116t16 -126.5q0 -64 -16 -124t-54 -117t-94 -99t-142 -67.5t-192 -25.5h-393v-573h-174zM346 717h391q85 0 150 24.5t102 66.5t55.5 91.5t18.5 104.5q0 120 -79.5 201t-242.5 81h-395v-569z" />
<glyph unicode="Q" horiz-adv-x="1673" d="M113 727q0 216 95 384t257.5 257.5t363.5 89.5q149 0 281 -52.5t228 -146.5t152 -232t56 -300q0 -298 -164 -502l183 -153l-99 -105l-182 162q-189 -154 -455 -154q-152 0 -283.5 53t-227 149.5t-150.5 238.5t-55 311zM291 727q0 -138 41.5 -251.5t114 -189.5 t170.5 -117.5t212 -41.5q192 0 332 115l-264 225l92 104l264 -235q115 160 115 391q0 130 -42 239.5t-114.5 183.5t-171.5 115.5t-211 41.5t-211 -41.5t-171 -115.5t-114 -183.5t-42 -239.5z" />
<glyph unicode="R" horiz-adv-x="1398" d="M172 0v1434h600q106 0 191 -24.5t141 -65t93 -96t53 -116t16 -126.5q0 -137 -77 -248t-226 -156l305 -602h-193l-274 578h-23h-432v-578h-174zM346 717h422q83 0 147 24.5t101 66t55.5 91t18.5 105.5q0 121 -79 201.5t-241 80.5h-424v-569z" />
<glyph unicode="S" horiz-adv-x="1261" d="M106 123l87 139q200 -131 442 -131q164 0 250 67t86 177q0 62 -28.5 107.5t-77.5 73t-112 48t-132.5 37.5t-139 36.5t-132.5 50t-112 72t-77.5 109.5t-28.5 156q0 169 133 281t359 112q250 0 475 -108l-68 -144q-196 97 -401 97q-146 0 -231 -66.5t-85 -169.5 q0 -62 28.5 -107.5t77 -73t111.5 -47.5t132.5 -37t139 -36t132.5 -49.5t111.5 -72.5t77 -110.5t28.5 -158.5q0 -177 -132.5 -288.5t-383.5 -111.5q-150 0 -290 41.5t-239 106.5z" />
<glyph unicode="T" horiz-adv-x="1333" d="M61 1278v156h1213v-156h-520v-1278h-174v1278h-519z" />
<glyph unicode="U" horiz-adv-x="1466" d="M166 530v904h176v-904q0 -190 110 -296.5t281 -106.5t282 106.5t111 296.5v904h174v-904q0 -135 -43.5 -242t-120.5 -174.5t-179.5 -103t-223.5 -35.5t-223.5 35.5t-179.5 103t-120.5 174.5t-43.5 242z" />
<glyph unicode="V" horiz-adv-x="1394" d="M61 1434h193l440 -1239h4l445 1239h192l-536 -1434h-205z" />
<glyph unicode="W" horiz-adv-x="2117" d="M66 1434h186l369 -1196h4l350 1196h172l348 -1196h4l371 1196h184l-457 -1434h-192l-344 1171h-4l-344 -1171h-193z" />
<glyph unicode="X" horiz-adv-x="1415" d="M78 0l520 731l-496 703h213l396 -566l393 566h211l-498 -703l520 -731h-215l-415 596l-414 -596h-215z" />
<glyph unicode="Y" horiz-adv-x="1370" d="M57 1434h207l420 -682h4l420 682h205l-541 -850v-584h-174v584z" />
<glyph unicode="Z" horiz-adv-x="1325" d="M115 0v145l858 1131h-856v158h1077v-144l-854 -1130h877v-160h-1102z" />
<glyph unicode="[" horiz-adv-x="794" d="M172 -410v1956h490v-129h-318v-1698h318v-129h-490z" />
<glyph unicode="\" horiz-adv-x="1034" d="M-23 1546h170l910 -1956h-172z" />
<glyph unicode="]" horiz-adv-x="794" d="M133 -281h318v1698h-318v129h490v-1956h-490v129z" />
<glyph unicode="^" horiz-adv-x="1114" d="M193 1151l286 365h158l285 -365h-136l-227 221l-231 -221h-135z" />
<glyph unicode="_" horiz-adv-x="1126" d="M0 -27h1126v-149h-1126v149z" />
<glyph unicode="`" horiz-adv-x="1296" d="M446 1446l121 92l285 -362h-117z" />
<glyph unicode="a" horiz-adv-x="1085" d="M100 246q0 77 35.5 138t94.5 100.5t143 66.5t173 40t193 17v156q0 84 -51.5 133t-155.5 49q-143 0 -335 -98l-66 135q217 104 406 104t280.5 -88t91.5 -237v-531q0 -108 107 -108v-125q-111 0 -169.5 31.5t-86.5 101.5q-142 -156 -348 -156q-140 0 -226 75t-86 196z M268 258q0 -69 49.5 -110.5t131.5 -41.5q92 0 168 38.5t122 97.5v258q-471 -22 -471 -242z" />
<glyph unicode="b" horiz-adv-x="1208" d="M166 0v1546h170v-620q151 161 336 161q197 0 314.5 -142.5t117.5 -395.5q0 -272 -115.5 -423t-316.5 -151q-195 0 -344 166l-15 -141h-147zM336 268q133 -155 299 -155q144 0 220.5 115t76.5 319q0 192 -78 297.5t-219 105.5q-162 0 -299 -157v-525z" />
<glyph unicode="c" horiz-adv-x="1056" d="M102 543q0 249 141 396.5t365 147.5q203 0 346 -114l-90 -117q-115 88 -252 88q-150 0 -244 -109t-94 -292q0 -197 92.5 -311.5t245.5 -114.5q147 0 267 102l98 -104q-81 -71 -168 -105.5t-201 -34.5q-227 0 -366.5 153.5t-139.5 414.5z" />
<glyph unicode="d" horiz-adv-x="1206" d="M104 549q0 253 117.5 395.5t315.5 142.5q183 0 337 -161v620h170v-1546h-147l-16 141q-152 -166 -346 -166q-201 0 -316 151t-115 423zM274 547q0 -204 77.5 -319t221.5 -115q165 0 301 155v525q-141 157 -301 157q-141 0 -220 -105.5t-79 -297.5z" />
<glyph unicode="e" horiz-adv-x="1159" d="M104 543q0 247 143 397t365 150q215 0 326 -131.5t111 -344.5q0 -38 -9 -90h-766q3 -197 92 -303t259 -106q160 0 311 100l76 -115q-83 -60 -186 -93.5t-210 -33.5q-242 0 -377 151.5t-135 418.5zM281 639h604v7q-1 88 -25 154q-26 70 -87.5 114t-156.5 44 q-130 0 -220 -85.5t-115 -233.5z" />
<glyph unicode="f" horiz-adv-x="778" d="M47 926v129h189v92q0 412 407 412q83 0 172 -29l-43 -125q-70 18 -125 18q-120 0 -180.5 -65.5t-60.5 -208.5v-94h294v-129h-294v-926h-170v926h-189z" />
<glyph unicode="g" horiz-adv-x="1175" d="M66 -150q0 76 47.5 134.5t130.5 95.5q-80 56 -80 145q0 102 104 164q-164 114 -164 311q0 170 126 278.5t313 108.5q166 0 286 -90q120 93 281 93h10v-129q-148 0 -219 -31q80 -100 80 -230q0 -117 -62 -208t-161 -138t-215 -47q-103 0 -185 33q-59 -29 -59 -86 q0 -27 14.5 -46t38 -31t68.5 -20t90.5 -12t118.5 -8q107 -6 188.5 -22t146 -47.5t98.5 -83.5t34 -123q0 -139 -132.5 -215t-388.5 -76q-245 0 -377 72.5t-132 207.5zM227 -143q0 -166 340 -166q179 0 273 39.5t94 115.5q0 78 -83 112t-255 42q-115 3 -221 27 q-67 -23 -107.5 -67t-40.5 -103zM268 700q0 -117 78.5 -192.5t196.5 -75.5t196 75t78 193q0 115 -78 190t-196 75t-196.5 -75t-78.5 -190z" />
<glyph unicode="h" horiz-adv-x="1185" d="M166 0v1546h170v-626q163 170 360 170q174 0 255 -97.5t81 -271.5v-721h-168v723q0 229 -205 229q-184 0 -323 -168v-784h-170z" />
<glyph unicode="i" horiz-adv-x="499" d="M166 0v1057h170v-1057h-170zM166 1327v195h170v-195h-170z" />
<glyph unicode="j" horiz-adv-x="518" d="M-106 -408l32 134q51 -15 88 -15q170 0 170 232v1114h168v-1108q0 -379 -321 -379q-73 0 -137 22zM184 1327v195h168v-195h-168z" />
<glyph unicode="k" horiz-adv-x="1097" d="M166 0v1546h170v-1028l477 545h193l-324 -358l373 -705h-195l-291 580l-233 -258v-322h-170z" />
<glyph unicode="l" horiz-adv-x="501" d="M166 0v1546h170v-1546h-170z" />
<glyph unicode="m" horiz-adv-x="1824" d="M158 0v1063h157l11 -137q73 74 163 119t187 45q220 0 293 -177q177 177 377 177q163 0 244 -98t81 -269v-723h-170v727q0 225 -192 225q-175 0 -310 -157q5 -63 5 -80v-715h-173v727q0 225 -192 225q-179 0 -311 -164v-788h-170z" />
<glyph unicode="n" horiz-adv-x="1177" d="M158 0v1063h157l11 -143q163 170 364 170q173 0 254.5 -97.5t81.5 -271.5v-721h-170v723q0 229 -203 229q-187 0 -325 -170v-782h-170z" />
<glyph unicode="o" horiz-adv-x="1230" d="M104 545q0 244 144.5 393t367.5 149t365.5 -149t142.5 -393q0 -261 -139.5 -415.5t-368.5 -154.5q-232 0 -372 154.5t-140 415.5zM276 545q0 -198 91.5 -316t248.5 -118q153 0 244.5 118.5t91.5 315.5q0 182 -93.5 293.5t-242.5 111.5q-150 0 -245 -111.5t-95 -293.5z " />
<glyph unicode="p" horiz-adv-x="1204" d="M164 -410v1473h149l15 -141q151 165 342 165q196 0 313 -142.5t117 -395.5q0 -272 -114.5 -423t-313.5 -151q-188 0 -340 162v-547h-168zM332 268q133 -155 301 -155q143 0 220 115t77 319q0 192 -78.5 297.5t-220.5 105.5q-158 0 -299 -157v-525z" />
<glyph unicode="q" horiz-adv-x="1206" d="M104 549q0 253 117.5 395.5t315.5 142.5q189 0 340 -165l16 141h151v-1473h-170v547q-152 -162 -339 -162q-201 0 -316 151t-115 423zM274 547q0 -203 78 -318.5t221 -115.5q165 0 301 155v525q-141 157 -301 157q-141 0 -220 -105.5t-79 -297.5z" />
<glyph unicode="r" horiz-adv-x="827" d="M158 0v1063h153l15 -180q122 207 323 207q70 0 135 -21l-32 -160q-61 23 -125 23q-178 0 -299 -217v-715h-170z" />
<glyph unicode="s" horiz-adv-x="972" d="M80 86l76 123q156 -96 331 -96q111 0 172.5 42t61.5 121q0 42 -21 73.5t-57 51t-83 34.5t-98 28t-102.5 28t-98.5 38.5t-83 55t-57 81.5t-21 114q0 140 107.5 223.5t275.5 83.5q183 0 363 -83l-68 -130q-65 34 -145 55t-150 21q-98 0 -156.5 -44t-58.5 -120 q0 -47 26.5 -80.5t70 -51t99 -34.5t114 -29t114 -36t99 -55t70 -86t26.5 -129q0 -147 -107 -228.5t-293 -81.5q-226 0 -407 111z" />
<glyph unicode="t" horiz-adv-x="800" d="M47 932v131h186v311h170v-311h306v-131h-306v-647q0 -170 140 -170q84 0 157 51l66 -111q-112 -80 -242 -80q-149 0 -220 77t-71 231v649h-186z" />
<glyph unicode="u" horiz-adv-x="1179" d="M154 344v719h170v-723q0 -110 46 -169.5t156 -59.5q187 0 328 170v782h170v-1063h-154l-14 143q-164 -168 -364 -168q-174 0 -256 97.5t-82 271.5z" />
<glyph unicode="v" horiz-adv-x="1034" d="M45 1063h176l297 -877h4l297 877h170l-379 -1063h-188z" />
<glyph unicode="w" horiz-adv-x="1669" d="M45 1063h174l281 -852h4l256 852h151l258 -852h5l278 852h170l-360 -1063h-170l-256 825h-5l-253 -825h-170z" />
<glyph unicode="x" horiz-adv-x="1052" d="M61 0l361 537l-346 526h186l264 -410l265 410h184l-344 -526l358 -537h-184l-281 422l-280 -422h-183z" />
<glyph unicode="y" horiz-adv-x="1040" d="M33 -395l49 137q79 -31 129 -31q61 0 100 28t66 99l65 168l-395 1057h176l301 -840h4l293 840h172l-448 -1237q-54 -143 -133.5 -199.5t-194.5 -56.5q-95 0 -184 35z" />
<glyph unicode="z" horiz-adv-x="1026" d="M102 0v119l603 807h-586v137h799v-121l-601 -805h621v-137h-836z" />
<glyph unicode="{" horiz-adv-x="933" d="M70 481v154h94q97 0 137.5 44t40.5 142v420q0 305 344 305h123v-127h-115q-99 0 -140.5 -42t-41.5 -138v-410q0 -220 -180 -268v-2q180 -54 180 -272v-389q0 -96 41.5 -138.5t140.5 -42.5h115v-127h-123q-344 0 -344 306v401q0 97 -40.5 140.5t-137.5 43.5h-94z" />
<glyph unicode="|" horiz-adv-x="585" d="M213 -410v1956h162v-1956h-162z" />
<glyph unicode="}" horiz-adv-x="933" d="M125 -283h115q99 0 140.5 42.5t41.5 138.5v389q0 218 180 272v2q-180 48 -180 268v410q0 96 -41.5 138t-140.5 42h-115v127h123q344 0 344 -305v-420q0 -98 40.5 -142t137.5 -44h94v-154h-94q-97 0 -137.5 -43.5t-40.5 -140.5v-401q0 -306 -344 -306h-123v127z" />
<glyph unicode="~" horiz-adv-x="1165" d="M150 449q0 126 61 201t168 75q46 0 93 -21t85 -50.5t74 -59.5t75.5 -51t75.5 -21q56 0 84.5 42t24.5 124h123q2 -16 2 -43q0 -126 -61 -200t-169 -74q-47 0 -94 21t-85 50.5t-74.5 59t-75.5 50.5t-74 21q-56 0 -85.5 -43.5t-23.5 -123.5h-122q-2 16 -2 43z" />
<glyph unicode="&#xa1;" horiz-adv-x="526" d="M170 846v219h186v-219h-186zM172 0l45 643h90l45 -643v-369h-180v369z" />
<glyph unicode="&#xa2;" horiz-adv-x="1224" d="M100 571q0 251 167 410.5t435 159.5q23 0 35 -2l49 200h109l-51 -213q136 -27 260 -112l-86 -117q-103 71 -213 92l-203 -864q55 -10 103 -10q194 0 327 121l103 -103q-180 -160 -433 -160q-49 0 -124 11l-60 -256h-108l67 280q-177 61 -277 210.5t-100 352.5zM266 571 q0 -151 66 -260.5t186 -160.5l197 849h-10q-194 0 -316.5 -118.5t-122.5 -309.5z" />
<glyph unicode="&#xa3;" horiz-adv-x="1210" d="M78 172q0 84 62 139.5t155 55.5q99 0 223 -76v12q0 63 -20.5 114t-63.5 118h-254v108h180q-73 118 -73 223q0 120 90 197.5t248 77.5q129 0 216.5 -53t133.5 -132l-133 -61q-28 48 -80.5 82.5t-128.5 34.5q-86 0 -134 -42t-48 -108q0 -54 22 -105t66 -116h284v-106h-215 q64 -109 64 -216q0 -57 -23 -118q70 -46 127 -70.5t117 -24.5q74 0 109 46.5t28 138.5h150q20 -151 -48 -233.5t-206 -82.5q-92 0 -172 36t-162 98q-55 -62 -134 -98t-159 -36q-99 0 -160 56.5t-61 140.5zM184 172q0 -43 30.5 -71.5t84.5 -28.5t106.5 30.5t83.5 85.5 q-115 82 -190 82q-50 0 -82.5 -28t-32.5 -70z" />
<glyph unicode="&#xa4;" horiz-adv-x="1349" d="M133 547q0 199 127 348l-113 119l84 80l111 -121q146 114 334 114q184 0 330 -114l114 121l84 -80l-117 -121q130 -153 130 -346q0 -195 -127 -348l114 -121l-84 -78l-112 121q-147 -115 -332 -115q-190 0 -334 113l-111 -119l-84 78l111 121q-125 151 -125 348zM287 547 q0 -161 114 -275t275 -114t275 114t114 275t-114 275t-275 114t-275 -114t-114 -275z" />
<glyph unicode="&#xa5;" horiz-adv-x="1191" d="M59 1116h203l332 -448h2l334 448h200l-450 -592h377v-106h-377v-129h377v-105h-377v-184h-172v184h-379v105h379v129h-379v106h379z" />
<glyph unicode="&#xa6;" horiz-adv-x="585" d="M213 352h162v-762h-162v762zM213 713v833h162v-833h-162z" />
<glyph unicode="&#xa7;" horiz-adv-x="1091" d="M137 451q0 122 123 213q-86 76 -86 190q0 133 104 208t285 75q107 0 207.5 -43t169.5 -115l-113 -92q-48 53 -119 86t-151 33q-102 0 -161.5 -38t-59.5 -110q0 -49 34 -85.5t89 -60t121 -45t132 -47.5t121 -60t89 -90.5t34 -131.5q0 -122 -125 -215q89 -76 89 -189 q0 -133 -105.5 -207.5t-286.5 -74.5q-106 0 -206 43.5t-168 114.5l110 92q49 -55 120.5 -88t150.5 -33q102 0 161.5 38.5t59.5 110.5q0 49 -34 85.5t-88.5 60t-121 44.5t-132.5 47.5t-120.5 60.5t-88.5 91t-34 132zM289 471q0 -52 27 -91.5t77.5 -66t101.5 -45t122 -42 t116 -44.5q70 62 70 135q0 52 -27 91t-78 65.5t-102.5 44.5t-122.5 41.5t-115 44.5q-69 -58 -69 -133z" />
<glyph unicode="&#xa8;" horiz-adv-x="1316" d="M381 1253v168h156v-168h-156zM780 1253v168h156v-168h-156z" />
<glyph unicode="&#xa9;" horiz-adv-x="1759" d="M135 573q0 203 99.5 374t270.5 270.5t374 99.5q152 0 290 -59t237.5 -158.5t158.5 -237t59 -289.5q0 -151 -59 -288.5t-158.5 -236.5t-237.5 -157.5t-290 -58.5t-289.5 58.5t-237 157.5t-158.5 236.5t-59 288.5zM231 573q0 -174 87 -322.5t237 -235.5t326 -87t325.5 87 t236.5 235.5t87 322.5q0 132 -51.5 252.5t-138.5 207.5t-207 138.5t-252 51.5t-252.5 -51.5t-207.5 -138.5t-138.5 -207.5t-51.5 -252.5zM475 573q0 174 119 291t301 117q159 0 283 -90l-74 -98q-99 73 -207 73q-125 0 -207 -83t-82 -210q0 -135 80.5 -214.5t208.5 -79.5 q130 0 215 79l82 -84q-120 -114 -299 -114q-188 0 -304 113t-116 300z" />
<glyph unicode="&#xaa;" horiz-adv-x="768" d="M76 872q0 232 438 252v101q0 53 -34 84.5t-105 31.5q-98 0 -232 -69l-47 100q144 74 283 74q129 0 192.5 -60.5t63.5 -162.5v-355q0 -73 74 -73v-95q-77 0 -117.5 21t-63.5 67q-95 -102 -233 -102q-97 0 -158 51.5t-61 134.5zM199 883q0 -45 32.5 -73t85.5 -28 q118 0 197 86v172q-315 -13 -315 -157z" />
<glyph unicode="&#xab;" horiz-adv-x="1253" d="M98 535l410 530l121 -92l-355 -438l355 -445l-121 -90zM606 535l410 530l121 -92l-355 -438l355 -445l-121 -90z" />
<glyph unicode="&#xac;" horiz-adv-x="1265" d="M125 973v143h1016v-545h-178v402h-838z" />
<glyph unicode="&#xad;" horiz-adv-x="776" d="M90 461v151h598v-151h-598z" />
<glyph unicode="&#xae;" horiz-adv-x="1759" d="M135 573q0 203 99.5 374t270.5 270.5t374 99.5q152 0 290 -59t237.5 -158.5t158.5 -237t59 -289.5q0 -151 -59 -288.5t-158.5 -236.5t-237.5 -157.5t-290 -58.5t-289.5 58.5t-237 157.5t-158.5 236.5t-59 288.5zM231 573q0 -174 86.5 -322.5t236 -235.5t325.5 -87t326 87 t237.5 235.5t87.5 322.5q0 132 -52 252.5t-139 207.5t-207.5 138.5t-252.5 51.5t-252 -51.5t-206.5 -138.5t-138 -207.5t-51.5 -252.5zM575 182v785h369q77 0 135 -20.5t91 -56t49 -78t16 -91.5q0 -72 -43 -134t-131 -89q9 -15 87.5 -155t92.5 -161h-143l-162 301h-229v-301 h-132zM707 584h223q90 0 133 41t43 96q0 60 -41.5 100.5t-132.5 40.5h-225v-278z" />
<glyph unicode="&#xaf;" horiz-adv-x="1312" d="M362 1278v119h603v-119h-603z" />
<glyph unicode="&#xb0;" horiz-adv-x="849" d="M92 1133q0 139 98 233t234 94q135 0 233.5 -94t98.5 -233q0 -144 -96.5 -235t-233.5 -91q-139 0 -236.5 91t-97.5 235zM207 1133q0 -93 64.5 -155.5t154.5 -62.5q89 0 152 62t63 156q0 93 -63 155t-152 62t-154 -62.5t-65 -154.5z" />
<glyph unicode="&#xb1;" horiz-adv-x="1257" d="M96 0v125h453v379h-453v147h453v414h160v-414h452v-147h-452v-379h452v-125h-1065z" />
<glyph unicode="&#xb2;" horiz-adv-x="688" d="M76 1647q52 52 123.5 83t150.5 31q127 0 196.5 -58.5t69.5 -150.5q0 -52 -22 -93t-57.5 -67t-78.5 -48.5t-86 -43t-79 -43.5t-58.5 -57.5t-23.5 -77.5h405v-98h-528v57q-2 68 20 122t58 87t80 59.5t88.5 47t81 41.5t59.5 50t23 66q0 47 -40.5 78t-113.5 31 q-106 0 -190 -88z" />
<glyph unicode="&#xb3;" horiz-adv-x="681" d="M74 1659q118 102 262 102q114 0 187 -53t73 -135q0 -117 -111 -164q138 -48 138 -170q0 -106 -89 -167.5t-221 -61.5q-125 0 -237 57l43 94q97 -53 192 -53q83 0 137 37.5t54 95.5q0 56 -42 84.5t-116 28.5h-106v94h100q67 0 103 29.5t36 81.5q0 45 -38.5 74.5 t-104.5 29.5q-108 0 -195 -80z" />
<glyph unicode="&#xb4;" horiz-adv-x="1296" d="M444 1176l285 362l121 -92l-289 -270h-117z" />
<glyph unicode="&#xb5;" horiz-adv-x="1128" d="M125 -410v1526h172v-794q5 -100 52.5 -154.5t150.5 -54.5q187 0 329 168v835h172v-1116h-157l-10 137q-146 -160 -320 -160q-164 0 -223 105l-15 -492h-151z" />
<glyph unicode="&#xb6;" horiz-adv-x="1413" d="M127 1008q0 64 16 123.5t53 115t91 96.5t137 66t184 25h623v-1434h-154v1305h-229v-1305h-154v586h-82q-101 0 -184 25.5t-137.5 67.5t-92.5 97.5t-54.5 113.5t-16.5 118z" />
<glyph unicode="&#xb7;" d="M129 414v239h190v-239h-190z" />
<glyph unicode="&#xb8;" horiz-adv-x="1296" d="M477 -379q102 82 172 184t86 213h109q-12 -133 -73.5 -251.5t-164.5 -210.5z" />
<glyph unicode="&#xb9;" horiz-adv-x="587" d="M90 1638l223 111h93v-725h-117v608l-152 -80z" />
<glyph unicode="&#xba;" horiz-adv-x="866" d="M72 1075q0 167 100 269t254 102q155 0 254.5 -102t99.5 -269q0 -180 -97 -284.5t-257 -104.5q-161 0 -257.5 104.5t-96.5 284.5zM195 1073q0 -130 62 -207.5t169 -77.5q104 0 166.5 78t62.5 207q0 121 -63.5 195.5t-165.5 74.5t-166.5 -74.5t-64.5 -195.5z" />
<glyph unicode="&#xbb;" horiz-adv-x="1253" d="M117 90l354 445l-354 438l121 92l409 -530l-409 -535zM627 90l354 445l-354 438l121 92l409 -530l-409 -535z" />
<glyph unicode="&#xbc;" horiz-adv-x="1529" d="M113 1331l223 111h92v-725h-117v608l-151 -80zM166 0l1200 1434h133l-1200 -1434h-133zM909 242l369 483h131v-477h107v-94h-107v-154h-115v154h-348zM1032 248h262v352z" />
<glyph unicode="&#xbd;" horiz-adv-x="1640" d="M113 1331l223 111h92v-725h-117v608l-151 -80zM164 0l1200 1434h133l-1200 -1434h-133zM1083 623q52 52 124 83t151 31q127 0 196.5 -58.5t69.5 -150.5q0 -52 -22 -93t-57.5 -67t-78.5 -48.5t-86 -43t-79 -43.5t-58.5 -57.5t-23.5 -77.5h405v-98h-528v57q-2 68 20 122 t58 87t79.5 59.5t88 47t81 41.5t59.5 50t23 66q0 47 -40 78t-113 31q-53 0 -103.5 -24.5t-87.5 -63.5z" />
<glyph unicode="&#xbe;" horiz-adv-x="1523" d="M51 1352q118 102 262 102q114 0 187 -53t73 -135q0 -117 -110 -164q137 -47 137 -170q0 -106 -89 -168t-220 -62q-124 0 -238 58l43 94q97 -53 193 -53q83 0 136.5 37.5t53.5 95.5q0 56 -41.5 84.5t-115.5 28.5h-107v94h100q67 0 103.5 29.5t36.5 80.5q0 45 -39 75 t-105 30q-107 0 -194 -80zM160 0l1200 1434h133l-1200 -1434h-133zM913 242l369 483h131v-477h107v-94h-107v-154h-115v154h-348zM1036 248h262v352z" />
<glyph unicode="&#xbf;" horiz-adv-x="1044" d="M111 -27q0 75 24 136.5t63 103t85.5 77.5t93.5 69t86.5 67.5t64 83t25.5 106.5v27h135q0 -2 1 -22t1 -23q0 -76 -22.5 -136.5t-58.5 -100t-79 -73t-86.5 -63.5t-79.5 -62t-58.5 -78t-22.5 -103q0 -101 79 -165.5t205 -64.5q175 0 326 148l106 -101q-182 -192 -434 -192 q-205 0 -329.5 100.5t-124.5 265.5zM526 846v219h187v-219h-187z" />
<glyph unicode="&#xc0;" horiz-adv-x="1417" d="M61 0l543 1434h209l541 -1434h-189l-129 352h-657l-127 -352h-191zM430 494h555l-276 761h-4zM430 1726l133 95l232 -275h-129z" />
<glyph unicode="&#xc1;" horiz-adv-x="1417" d="M61 0l543 1434h209l541 -1434h-189l-129 352h-657l-127 -352h-191zM430 494h555l-276 761h-4zM623 1546l229 275l135 -95l-235 -180h-129z" />
<glyph unicode="&#xc2;" horiz-adv-x="1417" d="M61 0l543 1434h209l541 -1434h-189l-129 352h-657l-127 -352h-191zM367 1546l258 236h168l258 -236h-119l-221 140h-2l-224 -140h-118zM430 494h555l-276 761h-4z" />
<glyph unicode="&#xc3;" horiz-adv-x="1417" d="M61 0l543 1434h209l541 -1434h-189l-129 352h-657l-127 -352h-191zM401 1556q-12 109 35 171.5t135 62.5q42 0 82.5 -20t66 -44.5t57 -44.5t57.5 -20q39 0 58 29.5t13 81.5h107q13 -107 -35 -170.5t-135 -63.5q-42 0 -82 20t-65.5 43.5t-57 43.5t-59.5 20 q-37 0 -56.5 -28.5t-13.5 -80.5h-107zM430 494h555l-276 761h-4z" />
<glyph unicode="&#xc4;" horiz-adv-x="1417" d="M61 0l543 1434h209l541 -1434h-189l-129 352h-657l-127 -352h-191zM424 1581v168h158v-168h-158zM430 494h555l-276 761h-4zM838 1581v168h155v-168h-155z" />
<glyph unicode="&#xc5;" horiz-adv-x="1417" d="M61 0l527 1393q-94 61 -94 174q0 89 62.5 150t152.5 61t152.5 -61t62.5 -150q0 -111 -97 -174l527 -1393h-189l-129 352h-657l-127 -352h-191zM430 494h555l-276 761h-4zM575 1567q0 -55 39 -94t95 -39q55 0 93 38.5t38 94.5q0 57 -37.5 95t-93.5 38t-95 -38t-39 -95z " />
<glyph unicode="&#xc6;" horiz-adv-x="2117" d="M55 0l658 1434h1259v-156h-968l137 -473h751v-150h-708l145 -499h658v-156h-801l-99 352h-679l-156 -352h-197zM473 498h574l-218 780h-10z" />
<glyph unicode="&#xc7;" horiz-adv-x="1454" d="M113 731q0 213 91 378.5t255.5 257t376.5 91.5q273 0 475 -155l-94 -127q-173 131 -379 131q-246 0 -397.5 -158.5t-151.5 -417.5q0 -272 149.5 -438t399.5 -166q235 0 397 156l108 -115q-202 -193 -512 -193h-2q-38 -245 -231 -419l-129 65q94 75 161 168.5t91 194.5 q-277 35 -442.5 237.5t-165.5 509.5z" />
<glyph unicode="&#xc8;" horiz-adv-x="1300" d="M172 0v1434h983v-156h-809v-475h729v-146h-729v-501h821v-156h-995zM391 1726l133 95l232 -275h-129z" />
<glyph unicode="&#xc9;" horiz-adv-x="1300" d="M172 0v1434h983v-156h-809v-475h729v-146h-729v-501h821v-156h-995zM584 1546l229 275l135 -95l-235 -180h-129z" />
<glyph unicode="&#xca;" horiz-adv-x="1300" d="M172 0v1434h983v-156h-809v-475h729v-146h-729v-501h821v-156h-995zM328 1546l258 236h168l258 -236h-119l-221 140h-2l-224 -140h-118z" />
<glyph unicode="&#xcb;" horiz-adv-x="1300" d="M172 0v1434h983v-156h-809v-475h729v-146h-729v-501h821v-156h-995zM387 1581v168h158v-168h-158zM801 1581v168h155v-168h-155z" />
<glyph unicode="&#xcc;" horiz-adv-x="516" d="M-18 1726l133 95l231 -275h-129zM172 0v1434h174v-1434h-174z" />
<glyph unicode="&#xcd;" horiz-adv-x="516" d="M172 0v1434h174v-1434h-174zM172 1546l229 275l136 -95l-236 -180h-129z" />
<glyph unicode="&#xce;" horiz-adv-x="516" d="M-82 1546l258 236h168l258 -236h-119l-221 140h-2l-223 -140h-119zM172 0v1434h174v-1434h-174z" />
<glyph unicode="&#xcf;" horiz-adv-x="516" d="M-25 1581v168h158v-168h-158zM172 0v1434h174v-1434h-174zM389 1581v168h156v-168h-156z" />
<glyph unicode="&#xd0;" horiz-adv-x="1533" d="M29 662v118h215v-118h-215zM246 0v1434h413q369 0 567.5 -187.5t198.5 -521.5q0 -346 -193 -535.5t-573 -189.5h-413zM420 147h250q285 0 432 152t147 426q0 262 -150.5 411.5t-428.5 149.5h-250v-506h420v-118h-420v-515z" />
<glyph unicode="&#xd1;" horiz-adv-x="1484" d="M172 0v1434h176l797 -1164v1164h168v-1434h-178l-795 1161v-1161h-168zM436 1556q-12 109 35 171.5t135 62.5q42 0 82 -20t66 -44.5t57 -44.5t57 -20q39 0 58.5 29.5t13.5 81.5h107q13 -107 -35 -170.5t-135 -63.5q-42 0 -82 20t-66 43.5t-57.5 43.5t-59.5 20 q-37 0 -56 -28.5t-13 -80.5h-107z" />
<glyph unicode="&#xd2;" horiz-adv-x="1656" d="M113 727q0 216 95 384t257.5 257.5t363.5 89.5q149 0 281 -52.5t228 -146.5t152 -232t56 -300q0 -169 -55 -311t-151 -238.5t-227.5 -149.5t-283.5 -53t-283.5 53t-227 149.5t-150.5 238.5t-55 311zM291 727q0 -138 41.5 -251.5t114 -189.5t170.5 -117.5t212 -41.5 q113 0 211.5 41.5t171 117.5t114.5 190t42 251q0 130 -42 239.5t-114.5 183.5t-171.5 115.5t-211 41.5t-211 -41.5t-171 -115.5t-114 -183.5t-42 -239.5zM553 1726l133 95l232 -275h-130z" />
<glyph unicode="&#xd3;" horiz-adv-x="1656" d="M113 727q0 216 95 384t257.5 257.5t363.5 89.5q149 0 281 -52.5t228 -146.5t152 -232t56 -300q0 -169 -55 -311t-151 -238.5t-227.5 -149.5t-283.5 -53t-283.5 53t-227 149.5t-150.5 238.5t-55 311zM291 727q0 -138 41.5 -251.5t114 -189.5t170.5 -117.5t212 -41.5 q113 0 211.5 41.5t171 117.5t114.5 190t42 251q0 130 -42 239.5t-114.5 183.5t-171.5 115.5t-211 41.5t-211 -41.5t-171 -115.5t-114 -183.5t-42 -239.5zM743 1546l230 275l135 -95l-236 -180h-129z" />
<glyph unicode="&#xd4;" horiz-adv-x="1656" d="M113 727q0 216 95 384t257.5 257.5t363.5 89.5q149 0 281 -52.5t228 -146.5t152 -232t56 -300q0 -169 -55 -311t-151 -238.5t-227.5 -149.5t-283.5 -53t-283.5 53t-227 149.5t-150.5 238.5t-55 311zM291 727q0 -138 41.5 -251.5t114 -189.5t170.5 -117.5t212 -41.5 q113 0 211.5 41.5t171 117.5t114.5 190t42 251q0 130 -42 239.5t-114.5 183.5t-171.5 115.5t-211 41.5t-211 -41.5t-171 -115.5t-114 -183.5t-42 -239.5zM487 1546l258 236h168l258 -236h-118l-222 140h-2l-223 -140h-119z" />
<glyph unicode="&#xd5;" horiz-adv-x="1656" d="M113 727q0 216 95 384t257.5 257.5t363.5 89.5q149 0 281 -52.5t228 -146.5t152 -232t56 -300q0 -169 -55 -311t-151 -238.5t-227.5 -149.5t-283.5 -53t-283.5 53t-227 149.5t-150.5 238.5t-55 311zM291 727q0 -138 41.5 -251.5t114 -189.5t170.5 -117.5t212 -41.5 q113 0 211.5 41.5t171 117.5t114.5 190t42 251q0 130 -42 239.5t-114.5 183.5t-171.5 115.5t-211 41.5t-211 -41.5t-171 -115.5t-114 -183.5t-42 -239.5zM524 1556q-12 109 35 171.5t135 62.5q42 0 82 -20t66 -44.5t57 -44.5t57 -20q39 0 58.5 29.5t13.5 81.5h107 q13 -107 -35 -170.5t-135 -63.5q-42 0 -82 20t-66 43.5t-57.5 43.5t-59.5 20q-37 0 -56 -28.5t-13 -80.5h-107z" />
<glyph unicode="&#xd6;" horiz-adv-x="1656" d="M113 727q0 216 95 384t257.5 257.5t363.5 89.5q149 0 281 -52.5t228 -146.5t152 -232t56 -300q0 -169 -55 -311t-151 -238.5t-227.5 -149.5t-283.5 -53t-283.5 53t-227 149.5t-150.5 238.5t-55 311zM291 727q0 -138 41.5 -251.5t114 -189.5t170.5 -117.5t212 -41.5 q113 0 211.5 41.5t171 117.5t114.5 190t42 251q0 130 -42 239.5t-114.5 183.5t-171.5 115.5t-211 41.5t-211 -41.5t-171 -115.5t-114 -183.5t-42 -239.5zM545 1581v168h157v-168h-157zM958 1581v168h156v-168h-156z" />
<glyph unicode="&#xd7;" horiz-adv-x="1200" d="M137 154l357 378l-357 379l107 105l354 -377l356 377l109 -105l-358 -379l358 -378l-109 -103l-356 375l-354 -375z" />
<glyph unicode="&#xd8;" horiz-adv-x="1656" d="M113 727q0 216 95 384t257.5 257.5t363.5 89.5q228 0 408 -119l127 168l90 -71l-129 -164q105 -99 163 -238t58 -307q0 -169 -55 -311t-151 -238.5t-227.5 -149.5t-283.5 -53q-231 0 -405 117l-129 -166l-90 68l131 168q-223 210 -223 565zM291 727q0 -271 151 -438 l699 921q-140 97 -312 97q-112 0 -211 -41.5t-171 -115.5t-114 -183.5t-42 -239.5zM516 223q134 -96 313 -96q113 0 211.5 41.5t171 117.5t114.5 190t42 251q0 257 -151 418z" />
<glyph unicode="&#xd9;" horiz-adv-x="1466" d="M166 530v904h176v-904q0 -190 110 -296.5t281 -106.5t282 106.5t111 296.5v904h174v-904q0 -135 -43.5 -242t-120.5 -174.5t-179.5 -103t-223.5 -35.5t-223.5 35.5t-179.5 103t-120.5 174.5t-43.5 242zM455 1726l133 95l231 -275h-129z" />
<glyph unicode="&#xda;" horiz-adv-x="1466" d="M166 530v904h176v-904q0 -190 110 -296.5t281 -106.5t282 106.5t111 296.5v904h174v-904q0 -135 -43.5 -242t-120.5 -174.5t-179.5 -103t-223.5 -35.5t-223.5 35.5t-179.5 103t-120.5 174.5t-43.5 242zM647 1546l230 275l135 -95l-236 -180h-129z" />
<glyph unicode="&#xdb;" horiz-adv-x="1466" d="M166 530v904h176v-904q0 -190 110 -296.5t281 -106.5t282 106.5t111 296.5v904h174v-904q0 -135 -43.5 -242t-120.5 -174.5t-179.5 -103t-223.5 -35.5t-223.5 35.5t-179.5 103t-120.5 174.5t-43.5 242zM391 1546l258 236h168l258 -236h-119l-221 140h-2l-223 -140h-119z " />
<glyph unicode="&#xdc;" horiz-adv-x="1466" d="M166 530v904h176v-904q0 -190 110 -296.5t281 -106.5t282 106.5t111 296.5v904h174v-904q0 -135 -43.5 -242t-120.5 -174.5t-179.5 -103t-223.5 -35.5t-223.5 35.5t-179.5 103t-120.5 174.5t-43.5 242zM449 1581v168h157v-168h-157zM862 1581v168h156v-168h-156z" />
<glyph unicode="&#xdd;" horiz-adv-x="1370" d="M57 1434h207l420 -682h4l420 682h205l-541 -850v-584h-174v584zM600 1546l229 275l136 -95l-236 -180h-129z" />
<glyph unicode="&#xde;" horiz-adv-x="1345" d="M172 0v1434h174v-260h354q136 0 240 -34.5t167 -96.5t94.5 -141.5t31.5 -174.5q0 -97 -31 -178t-93.5 -144.5t-167 -99t-241.5 -35.5h-354v-270h-174zM346 416h352q178 0 269.5 86t91.5 225q0 135 -92 218t-267 83h-354v-612z" />
<glyph unicode="&#xdf;" horiz-adv-x="1302" d="M162 0v1116q0 209 129.5 327t337.5 118q206 0 340.5 -113.5t134.5 -302.5q0 -123 -70 -214.5t-194 -129.5q168 -28 266 -132.5t98 -258.5q0 -134 -64 -233t-170.5 -148t-240.5 -49q-121 0 -223 30l31 142q85 -29 174 -29q140 0 231.5 78t91.5 215q0 140 -101.5 220.5 t-270.5 80.5h-91v143h60q145 0 224 80t79 199q0 132 -83.5 209t-221.5 77q-136 0 -217.5 -80t-81.5 -227v-1118h-168z" />
<glyph unicode="&#xe0;" horiz-adv-x="1085" d="M100 246q0 77 35.5 138t94.5 100.5t143 66.5t173 40t193 17v156q0 84 -51.5 133t-155.5 49q-143 0 -335 -98l-66 135q217 104 406 104t280.5 -88t91.5 -237v-531q0 -108 107 -108v-125q-111 0 -169.5 31.5t-86.5 101.5q-142 -156 -348 -156q-140 0 -226 75t-86 196z M248 1446l121 92l284 -362h-116zM268 258q0 -69 49.5 -110.5t131.5 -41.5q92 0 168 38.5t122 97.5v258q-471 -22 -471 -242z" />
<glyph unicode="&#xe1;" horiz-adv-x="1085" d="M100 246q0 77 35.5 138t94.5 100.5t143 66.5t173 40t193 17v156q0 84 -51.5 133t-155.5 49q-143 0 -335 -98l-66 135q217 104 406 104t280.5 -88t91.5 -237v-531q0 -108 107 -108v-125q-111 0 -169.5 31.5t-86.5 101.5q-142 -156 -348 -156q-140 0 -226 75t-86 196z M268 258q0 -69 49.5 -110.5t131.5 -41.5q92 0 168 38.5t122 97.5v258q-471 -22 -471 -242zM457 1176l284 362l121 -92l-289 -270h-116z" />
<glyph unicode="&#xe2;" horiz-adv-x="1085" d="M100 246q0 77 35.5 138t94.5 100.5t143 66.5t173 40t193 17v156q0 84 -51.5 133t-155.5 49q-143 0 -335 -98l-66 135q217 104 406 104t280.5 -88t91.5 -237v-531q0 -108 107 -108v-125q-111 0 -169.5 31.5t-86.5 101.5q-142 -156 -348 -156q-140 0 -226 75t-86 196z M213 1176l254 323h180l254 -323h-123l-221 223h-2l-221 -223h-121zM268 258q0 -69 49.5 -110.5t131.5 -41.5q92 0 168 38.5t122 97.5v258q-471 -22 -471 -242z" />
<glyph unicode="&#xe3;" horiz-adv-x="1085" d="M100 246q0 77 35.5 138t94.5 100.5t143 66.5t173 40t193 17v156q0 84 -51.5 133t-155.5 49q-143 0 -335 -98l-66 135q217 104 406 104t280.5 -88t91.5 -237v-531q0 -108 107 -108v-125q-111 0 -169.5 31.5t-86.5 101.5q-142 -156 -348 -156q-140 0 -226 75t-86 196z M252 1229q-12 109 35 172t135 63q42 0 82 -20t65 -44.5t56 -44.5t57 -20q39 0 58.5 29t13.5 82h104q13 -108 -34 -172t-134 -64q-41 0 -81 20t-65.5 43.5t-57 43.5t-58.5 20q-38 0 -57 -27.5t-13 -80.5h-106zM268 258q0 -69 49.5 -110.5t131.5 -41.5q92 0 168 38.5t122 97.5 v258q-471 -22 -471 -242z" />
<glyph unicode="&#xe4;" horiz-adv-x="1085" d="M100 246q0 77 35.5 138t94.5 100.5t143 66.5t173 40t193 17v156q0 84 -51.5 133t-155.5 49q-143 0 -335 -98l-66 135q217 104 406 104t280.5 -88t91.5 -237v-531q0 -108 107 -108v-125q-111 0 -169.5 31.5t-86.5 101.5q-142 -156 -348 -156q-140 0 -226 75t-86 196z M268 258q0 -69 49.5 -110.5t131.5 -41.5q92 0 168 38.5t122 97.5v258q-471 -22 -471 -242zM279 1253v168h155v-168h-155zM678 1253v168h156v-168h-156z" />
<glyph unicode="&#xe5;" horiz-adv-x="1085" d="M100 246q0 77 35.5 138t94.5 100.5t143 66.5t173 40t193 17v156q0 84 -51.5 133t-155.5 49q-143 0 -335 -98l-66 135q217 104 406 104t280.5 -88t91.5 -237v-531q0 -108 107 -108v-125q-111 0 -169.5 31.5t-86.5 101.5q-142 -156 -348 -156q-140 0 -226 75t-86 196z M268 258q0 -69 49.5 -110.5t131.5 -41.5q92 0 168 38.5t122 97.5v258q-471 -22 -471 -242zM340 1376q0 89 62.5 149t152.5 60t152.5 -60t62.5 -149t-62.5 -149t-152.5 -60t-152.5 60t-62.5 149zM422 1376q0 -56 39 -95.5t94 -39.5t94 39.5t39 95.5q0 57 -38.5 95t-94.5 38 t-94.5 -38t-38.5 -95z" />
<glyph unicode="&#xe6;" horiz-adv-x="1792" d="M100 244q-1 77 35 138t95 100t144 65.5t173.5 39.5t193.5 17v162q0 82 -50.5 131t-153.5 49q-146 0 -338 -98l-68 135q232 107 406 107q267 0 323 -205q63 97 163 151t226 54q144 0 243.5 -63.5t145 -168.5t45.5 -244q0 -44 -8 -90h-764q3 -203 93.5 -306t255.5 -103 q162 0 309 100l78 -115q-176 -127 -394 -127q-288 0 -422 213q-62 -91 -172 -152t-243 -61q-142 0 -229 74.5t-87 196.5zM270 256q0 -67 50.5 -109.5t130.5 -42.5q104 0 191.5 51.5t133.5 139.5q-32 95 -35 203q-471 -18 -471 -242zM918 639h600q1 92 -24 161.5t-86.5 113.5 t-156.5 44q-130 0 -220 -85.5t-113 -233.5z" />
<glyph unicode="&#xe7;" horiz-adv-x="1056" d="M102 543q0 249 141 396.5t365 147.5q203 0 346 -114l-90 -117q-115 88 -252 88q-150 0 -244 -109t-94 -292q0 -197 92.5 -311.5t245.5 -114.5q147 0 267 102l98 -104q-78 -69 -162 -103t-192 -37q-38 -244 -232 -419l-129 65q94 75 161 168.5t91 194.5 q-189 30 -300.5 178t-111.5 381z" />
<glyph unicode="&#xe8;" horiz-adv-x="1159" d="M104 543q0 247 143 397t365 150q215 0 326 -131.5t111 -344.5q0 -38 -9 -90h-766q3 -197 92 -303t259 -106q160 0 311 100l76 -115q-83 -60 -186 -93.5t-210 -33.5q-242 0 -377 151.5t-135 418.5zM281 639h604q1 92 -24.5 161.5t-87.5 113.5t-157 44q-130 0 -220 -85.5 t-115 -233.5zM299 1446l121 92l285 -362h-117z" />
<glyph unicode="&#xe9;" horiz-adv-x="1159" d="M104 543q0 247 143 397t365 150q215 0 326 -131.5t111 -344.5q0 -38 -9 -90h-766q3 -197 92 -303t259 -106q160 0 311 100l76 -115q-83 -60 -186 -93.5t-210 -33.5q-242 0 -377 151.5t-135 418.5zM281 639h604q1 92 -24.5 161.5t-87.5 113.5t-157 44q-130 0 -220 -85.5 t-115 -233.5zM508 1176l285 362l120 -92l-288 -270h-117z" />
<glyph unicode="&#xea;" horiz-adv-x="1159" d="M104 543q0 247 143 397t365 150q215 0 326 -131.5t111 -344.5q0 -38 -9 -90h-766q3 -197 92 -303t259 -106q160 0 311 100l76 -115q-83 -60 -186 -93.5t-210 -33.5q-242 0 -377 151.5t-135 418.5zM266 1176l254 323h180l254 -323h-123l-221 223h-2l-221 -223h-121z M281 639h604q1 92 -24.5 161.5t-87.5 113.5t-157 44q-130 0 -220 -85.5t-115 -233.5z" />
<glyph unicode="&#xeb;" horiz-adv-x="1159" d="M104 543q0 247 143 397t365 150q215 0 326 -131.5t111 -344.5q0 -38 -9 -90h-766q3 -197 92 -303t259 -106q160 0 311 100l76 -115q-83 -60 -186 -93.5t-210 -33.5q-242 0 -377 151.5t-135 418.5zM281 639h604q1 92 -24.5 161.5t-87.5 113.5t-157 44q-130 0 -220 -85.5 t-115 -233.5zM332 1253v168h155v-168h-155zM731 1253v168h156v-168h-156z" />
<glyph unicode="&#xec;" horiz-adv-x="499" d="M-59 1446l120 92l285 -362h-117zM166 0v1057h170v-1057h-170z" />
<glyph unicode="&#xed;" horiz-adv-x="499" d="M152 1176l284 362l121 -92l-289 -270h-116zM166 0v1057h170v-1057h-170z" />
<glyph unicode="&#xee;" horiz-adv-x="499" d="M-94 1176l254 323h180l254 -323h-123l-221 223h-2l-221 -223h-121zM166 0v1057h170v-1057h-170z" />
<glyph unicode="&#xef;" horiz-adv-x="499" d="M-27 1253v168h156v-168h-156zM166 0v1057h170v-1057h-170zM373 1253v168h155v-168h-155z" />
<glyph unicode="&#xf0;" horiz-adv-x="1208" d="M111 471q0 207 123.5 336t318.5 129q187 0 328 -123q-77 214 -258 416l-234 -113l-51 101q127 57 207 96q-75 77 -250 233h207q107 -96 176 -168l201 97l49 -103q-98 -45 -170 -80q338 -385 338 -770q0 -261 -134 -404t-358 -143q-226 0 -359.5 137.5t-133.5 358.5z M283 471q0 -163 87 -262.5t234 -99.5q148 0 236 107.5t88 295.5q0 80 -15 160q-137 137 -329 137q-136 0 -218.5 -90.5t-82.5 -247.5z" />
<glyph unicode="&#xf1;" horiz-adv-x="1177" d="M158 0v1063h157l11 -143q163 170 364 170q173 0 254.5 -97.5t81.5 -271.5v-721h-170v723q0 229 -203 229q-187 0 -325 -170v-782h-170zM287 1229q-12 109 35 172t135 63q42 0 82 -20t65 -44.5t56 -44.5t57 -20q39 0 58 29t13 82h105q13 -108 -34 -172t-134 -64 q-41 0 -81 20t-65.5 43.5t-57 43.5t-58.5 20q-38 0 -57 -27.5t-13 -80.5h-106z" />
<glyph unicode="&#xf2;" horiz-adv-x="1230" d="M104 545q0 244 144.5 393t367.5 149t365.5 -149t142.5 -393q0 -261 -139.5 -415.5t-368.5 -154.5q-232 0 -372 154.5t-140 415.5zM276 545q0 -198 91.5 -316t248.5 -118q153 0 244.5 118.5t91.5 315.5q0 182 -93.5 293.5t-242.5 111.5q-150 0 -245 -111.5t-95 -293.5z M305 1446l121 92l285 -362h-117z" />
<glyph unicode="&#xf3;" horiz-adv-x="1230" d="M104 545q0 244 144.5 393t367.5 149t365.5 -149t142.5 -393q0 -261 -139.5 -415.5t-368.5 -154.5q-232 0 -372 154.5t-140 415.5zM276 545q0 -198 91.5 -316t248.5 -118q153 0 244.5 118.5t91.5 315.5q0 182 -93.5 293.5t-242.5 111.5q-150 0 -245 -111.5t-95 -293.5z M516 1176l285 362l121 -92l-289 -270h-117z" />
<glyph unicode="&#xf4;" horiz-adv-x="1230" d="M104 545q0 244 144.5 393t367.5 149t365.5 -149t142.5 -393q0 -261 -139.5 -415.5t-368.5 -154.5q-232 0 -372 154.5t-140 415.5zM272 1176l254 323h181l254 -323h-123l-222 223h-2l-221 -223h-121zM276 545q0 -198 91.5 -316t248.5 -118q153 0 244.5 118.5t91.5 315.5 q0 182 -93.5 293.5t-242.5 111.5q-150 0 -245 -111.5t-95 -293.5z" />
<glyph unicode="&#xf5;" horiz-adv-x="1230" d="M104 545q0 244 144.5 393t367.5 149t365.5 -149t142.5 -393q0 -261 -139.5 -415.5t-368.5 -154.5q-232 0 -372 154.5t-140 415.5zM276 545q0 -198 91.5 -316t248.5 -118q153 0 244.5 118.5t91.5 315.5q0 182 -93.5 293.5t-242.5 111.5q-150 0 -245 -111.5t-95 -293.5z M311 1229q-12 109 35 172t135 63q42 0 82 -20t65 -44.5t56 -44.5t57 -20q39 0 58.5 29t13.5 82h105q13 -108 -34 -172t-134 -64q-41 0 -81 20t-66 43.5t-57.5 43.5t-58.5 20q-38 0 -56.5 -27.5t-12.5 -80.5h-107z" />
<glyph unicode="&#xf6;" horiz-adv-x="1230" d="M104 545q0 244 144.5 393t367.5 149t365.5 -149t142.5 -393q0 -261 -139.5 -415.5t-368.5 -154.5q-232 0 -372 154.5t-140 415.5zM276 545q0 -198 91.5 -316t248.5 -118q153 0 244.5 118.5t91.5 315.5q0 182 -93.5 293.5t-242.5 111.5q-150 0 -245 -111.5t-95 -293.5z M338 1253v168h156v-168h-156zM737 1253v168h156v-168h-156z" />
<glyph unicode="&#xf7;" horiz-adv-x="1257" d="M96 459v147h1065v-147h-1065zM547 45v197h162v-197h-162zM547 821v199h162v-199h-162z" />
<glyph unicode="&#xf8;" horiz-adv-x="1230" d="M98 -39l140 178q-134 156 -134 406q0 244 144.5 393t367.5 149q161 0 289 -83l121 159l90 -69l-129 -164q137 -150 137 -385q0 -261 -139.5 -415.5t-368.5 -154.5q-169 0 -294 86l-132 -167zM276 545q0 -171 68 -283l471 619q-88 69 -199 69q-150 0 -245 -111.5 t-95 -293.5zM408 186q84 -75 208 -75q153 0 244.5 118.5t91.5 315.5q0 151 -69 260z" />
<glyph unicode="&#xf9;" horiz-adv-x="1179" d="M154 344v719h170v-723q0 -110 46 -169.5t156 -59.5q187 0 328 170v782h170v-1063h-154l-14 143q-164 -168 -364 -168q-174 0 -256 97.5t-82 271.5zM270 1446l121 92l285 -362h-117z" />
<glyph unicode="&#xfa;" horiz-adv-x="1179" d="M154 344v719h170v-723q0 -110 46 -169.5t156 -59.5q187 0 328 170v782h170v-1063h-154l-14 143q-164 -168 -364 -168q-174 0 -256 97.5t-82 271.5zM496 1176l284 362l121 -92l-289 -270h-116z" />
<glyph unicode="&#xfb;" horiz-adv-x="1179" d="M154 344v719h170v-723q0 -110 46 -169.5t156 -59.5q187 0 328 170v782h170v-1063h-154l-14 143q-164 -168 -364 -168q-174 0 -256 97.5t-82 271.5zM246 1176l254 323h180l254 -323h-123l-221 223h-2l-221 -223h-121z" />
<glyph unicode="&#xfc;" horiz-adv-x="1179" d="M154 344v719h170v-723q0 -110 46 -169.5t156 -59.5q187 0 328 170v782h170v-1063h-154l-14 143q-164 -168 -364 -168q-174 0 -256 97.5t-82 271.5zM311 1253v168h156v-168h-156zM711 1253v168h155v-168h-155z" />
<glyph unicode="&#xfd;" horiz-adv-x="1040" d="M33 -395l49 137q79 -31 129 -31q61 0 100 28t66 99l65 168l-395 1057h176l301 -840h4l293 840h172l-448 -1237q-54 -143 -133.5 -199.5t-194.5 -56.5q-95 0 -184 35zM426 1176l285 362l120 -92l-288 -270h-117z" />
<glyph unicode="&#xfe;" horiz-adv-x="1208" d="M166 -410v1956h170v-624q151 168 338 168q195 0 312.5 -144t117.5 -397q0 -272 -115 -424t-315 -152q-188 0 -338 164v-547h-170zM336 268q135 -157 301 -157q143 0 220 116t77 320q0 192 -79 298.5t-220 106.5q-160 0 -299 -159v-525z" />
<glyph unicode="&#xff;" horiz-adv-x="1040" d="M33 -395l49 137q79 -31 129 -31q61 0 100 28t66 99l65 168l-395 1057h176l301 -840h4l293 840h172l-448 -1237q-54 -143 -133.5 -199.5t-194.5 -56.5q-95 0 -184 35zM246 1253v168h155v-168h-155zM645 1253v168h156v-168h-156z" />
<glyph unicode="&#x152;" horiz-adv-x="2486" d="M113 729q0 155 54.5 291t148.5 231.5t224 151t277 55.5q176 0 319.5 -84.5t223.5 -232.5v293h983v-156h-809v-475h727v-148h-727v-499h821v-156h-995v293q-79 -150 -221 -234t-322 -84q-151 0 -281 55.5t-223.5 154t-146.5 239t-53 305.5zM289 729q0 -267 150.5 -434.5 t383.5 -167.5q234 0 385.5 168t151.5 434q0 124 -42 232t-114 183.5t-171 119t-210 43.5q-227 0 -380.5 -164t-153.5 -414z" />
<glyph unicode="&#x153;" horiz-adv-x="2007" d="M104 545q0 244 145 394.5t369 150.5q148 0 257.5 -73.5t160.5 -205.5q56 132 166.5 205.5t257.5 73.5q215 0 326.5 -131.5t111.5 -344.5q0 -44 -8 -90h-764q3 -199 91.5 -304t257.5 -105q162 0 309 100l78 -115q-181 -127 -394 -127q-162 0 -271 72.5t-161 208.5 q-53 -133 -161.5 -207t-256.5 -74q-231 0 -372.5 156t-141.5 416zM279 545q0 -198 90.5 -316t246.5 -118q153 0 244.5 118.5t91.5 315.5q0 184 -93 295.5t-243 111.5t-243.5 -112t-93.5 -295zM1133 639h600q1 92 -24.5 161.5t-87.5 113.5t-157 44q-130 0 -219 -85t-112 -234 z" />
<glyph unicode="&#x178;" horiz-adv-x="1370" d="M57 1434h207l420 -682h4l420 682h205l-541 -850v-584h-174v584zM401 1581v168h158v-168h-158zM815 1581v168h156v-168h-156z" />
<glyph unicode="&#x2c6;" horiz-adv-x="1325" d="M326 1176l254 323h180l254 -323h-123l-221 223h-2l-222 -223h-120z" />
<glyph unicode="&#x2dc;" horiz-adv-x="1316" d="M358 1229q-12 109 35 172t135 63q42 0 82 -20t65 -44.5t56 -44.5t57 -20q39 0 58.5 29t13.5 82h105q13 -108 -34 -172t-134 -64q-41 0 -81 20t-65.5 43.5t-57 43.5t-58.5 20q-38 0 -57 -27.5t-13 -80.5h-107z" />
<glyph unicode="&#x2000;" horiz-adv-x="910" />
<glyph unicode="&#x2001;" horiz-adv-x="1821" />
<glyph unicode="&#x2002;" horiz-adv-x="910" />
<glyph unicode="&#x2003;" horiz-adv-x="1821" />
<glyph unicode="&#x2004;" horiz-adv-x="607" />
<glyph unicode="&#x2005;" horiz-adv-x="455" />
<glyph unicode="&#x2006;" horiz-adv-x="303" />
<glyph unicode="&#x2007;" horiz-adv-x="303" />
<glyph unicode="&#x2008;" horiz-adv-x="227" />
<glyph unicode="&#x2009;" horiz-adv-x="364" />
<glyph unicode="&#x200a;" horiz-adv-x="101" />
<glyph unicode="&#x2010;" horiz-adv-x="776" d="M90 461v151h598v-151h-598z" />
<glyph unicode="&#x2011;" horiz-adv-x="776" d="M90 461v151h598v-151h-598z" />
<glyph unicode="&#x2012;" horiz-adv-x="776" d="M90 461v151h598v-151h-598z" />
<glyph unicode="&#x2013;" horiz-adv-x="1210" d="M94 461v151h1022v-151h-1022z" />
<glyph unicode="&#x2014;" horiz-adv-x="1869" d="M96 461v151h1678v-151h-1678z" />
<glyph unicode="&#x2018;" d="M127 920v198q0 131 47.5 205.5t151.5 118.5l43 -76q-127 -62 -127 -207h75v-239h-190z" />
<glyph unicode="&#x2019;" d="M78 987q127 62 127 207h-76v240h190v-199q0 -131 -47 -205.5t-151 -118.5z" />
<glyph unicode="&#x201a;" d="M78 -207q127 62 127 207h-76v240h190v-199q0 -131 -47 -205.5t-151 -118.5z" />
<glyph unicode="&#x201c;" horiz-adv-x="856" d="M127 920v198q0 131 47.5 205.5t151.5 118.5l43 -76q-127 -62 -127 -207h75v-239h-190zM537 920v198q0 131 47 205.5t151 118.5l43 -76q-127 -62 -127 -207h76v-239h-190z" />
<glyph unicode="&#x201d;" horiz-adv-x="856" d="M78 987q127 62 127 207h-76v240h190v-199q0 -131 -47 -205.5t-151 -118.5zM485 987q127 62 127 207h-75v240h190v-199q0 -131 -47.5 -205.5t-151.5 -118.5z" />
<glyph unicode="&#x201e;" horiz-adv-x="856" d="M78 -207q127 62 127 207h-76v240h190v-199q0 -131 -47 -205.5t-151 -118.5zM485 -207q127 62 127 207h-75v240h190v-199q0 -131 -47.5 -205.5t-151.5 -118.5z" />
<glyph unicode="&#x2022;" horiz-adv-x="1138" d="M289 532q0 117 81.5 198t198.5 81t198 -81t81 -198t-81 -197.5t-198 -80.5t-198.5 80.5t-81.5 197.5z" />
<glyph unicode="&#x2026;" horiz-adv-x="1417" d="M129 0v240h190v-240h-190zM614 0v240h191v-240h-191zM1100 0v240h190v-240h-190z" />
<glyph unicode="&#x202f;" horiz-adv-x="364" />
<glyph unicode="&#x2039;" horiz-adv-x="745" d="M98 535l410 530l121 -92l-355 -438l355 -445l-121 -90z" />
<glyph unicode="&#x203a;" horiz-adv-x="745" d="M117 90l354 445l-354 438l121 92l409 -530l-409 -535z" />
<glyph unicode="&#x205f;" horiz-adv-x="455" />
<glyph unicode="&#x20ac;" horiz-adv-x="1294" d="M61 350v109h177q-9 50 -9 106q0 37 7 88h-175v111h199q57 172 204 274.5t341 102.5q231 0 397 -146l-98 -108q-122 112 -295 112q-132 0 -232 -64.5t-147 -178.5h397v-103h-426q-6 -43 -6 -88q0 -62 8 -106h424v-103h-391q50 -113 148.5 -175t228.5 -62q182 0 299 117 l113 -97q-167 -164 -418 -164q-194 0 -339 100.5t-204 274.5h-203z" />
<glyph unicode="&#x2122;" horiz-adv-x="1798" d="M74 1319v115h700v-115h-287v-643h-129v643h-284zM907 676v758h137l248 -332l246 332h137v-758h-127v569l-252 -338l-260 338v-569h-129z" />
<glyph unicode="&#x25fc;" horiz-adv-x="1064" d="M0 0v1065h1065v-1065h-1065z" />
</font>
</defs>
</svg>
